<?xml version="1.0" encoding="UTF-8"?>
<svg xmlns="http://www.w3.org/2000/svg" viewBox="0 0 1024 1024">
<path d="M 578 545 L 577 546 L 575 546 L 574 547 L 573 547 L 569 551 L 569 552 L 568 553 L 568 554 L 567 555 L 567 564 L 568 565 L 568 566 L 553 581 L 552 581 L 551 582 L 549 582 L 548 581 L 545 581 L 544 580 L 541 580 L 540 581 L 538 581 L 537 582 L 535 582 L 531 586 L 531 587 L 530 588 L 530 589 L 529 590 L 529 599 L 530 600 L 530 601 L 531 602 L 531 603 L 534 606 L 535 606 L 536 607 L 537 607 L 538 608 L 540 608 L 541 609 L 545 609 L 546 608 L 548 608 L 549 607 L 550 607 L 551 606 L 552 606 L 554 604 L 554 603 L 555 602 L 555 601 L 556 600 L 556 598 L 557 597 L 557 590 L 574 573 L 576 573 L 577 574 L 586 574 L 587 573 L 588 573 L 589 572 L 590 572 L 593 569 L 593 568 L 594 567 L 594 566 L 595 565 L 595 564 L 596 563 L 596 557 L 595 556 L 595 554 L 594 553 L 594 552 L 593 551 L 593 550 L 591 548 L 590 548 L 589 547 L 588 547 L 587 546 L 586 546 L 585 545 Z" fill="black"/>
<path d="M 420 488 L 419 489 L 417 489 L 416 490 L 415 490 L 409 496 L 409 498 L 408 499 L 408 508 L 409 509 L 409 511 L 412 514 L 412 515 L 413 515 L 415 517 L 416 517 L 417 518 L 418 518 L 419 519 L 419 548 L 420 549 L 420 551 L 421 552 L 421 553 L 422 554 L 422 555 L 428 561 L 429 561 L 430 562 L 430 563 L 431 564 L 432 564 L 436 568 L 436 569 L 437 570 L 438 570 L 443 575 L 443 583 L 444 584 L 444 585 L 445 586 L 445 587 L 447 589 L 448 589 L 450 591 L 451 591 L 452 592 L 459 592 L 461 594 L 462 594 L 474 606 L 474 609 L 475 610 L 475 611 L 476 612 L 478 612 L 479 613 L 480 613 L 481 612 L 482 612 L 483 611 L 483 610 L 484 609 L 484 607 L 483 606 L 483 604 L 482 603 L 482 602 L 467 587 L 467 586 L 468 585 L 468 584 L 469 583 L 469 575 L 468 574 L 468 573 L 466 571 L 466 570 L 465 569 L 464 569 L 463 568 L 462 568 L 461 567 L 460 567 L 459 566 L 454 566 L 453 567 L 451 567 L 450 568 L 448 568 L 447 567 L 447 566 L 446 566 L 429 549 L 429 548 L 428 547 L 428 519 L 429 518 L 430 518 L 431 517 L 432 517 L 436 513 L 436 512 L 437 511 L 437 510 L 438 509 L 464 509 L 466 507 L 466 502 L 465 501 L 464 501 L 463 500 L 439 500 L 438 499 L 438 498 L 437 497 L 437 496 L 435 494 L 435 493 L 433 491 L 432 491 L 431 490 L 430 490 L 429 489 L 428 489 L 427 488 Z" fill="black"/>
<path d="M 479 469 L 478 470 L 478 554 L 549 554 L 549 539 L 497 539 L 496 538 L 496 520 L 497 519 L 542 519 L 542 506 L 498 506 L 496 504 L 496 485 L 497 484 L 549 484 L 549 470 L 548 469 L 547 470 L 480 470 Z" fill="black"/>
<path d="M 567 426 L 566 427 L 564 427 L 559 432 L 559 433 L 558 434 L 558 438 L 557 439 L 558 440 L 558 444 L 557 445 L 556 445 L 547 454 L 547 459 L 550 462 L 553 462 L 556 459 L 557 459 L 558 458 L 558 457 L 564 451 L 568 451 L 569 452 L 572 452 L 573 451 L 576 451 L 577 450 L 584 457 L 584 458 L 589 463 L 589 464 L 593 468 L 593 469 L 594 470 L 594 490 L 592 492 L 591 492 L 589 494 L 588 494 L 588 495 L 586 497 L 586 498 L 584 500 L 564 500 L 563 501 L 562 501 L 561 502 L 561 503 L 560 504 L 560 505 L 561 506 L 561 507 L 563 509 L 585 509 L 586 510 L 586 512 L 591 517 L 592 517 L 593 518 L 595 518 L 596 519 L 602 519 L 603 518 L 605 518 L 606 517 L 607 517 L 612 512 L 612 511 L 613 510 L 613 507 L 614 506 L 614 503 L 613 502 L 613 499 L 612 498 L 612 497 L 607 492 L 606 492 L 605 491 L 604 491 L 603 490 L 603 468 L 602 467 L 602 466 L 601 465 L 601 464 L 600 463 L 600 462 L 597 459 L 597 458 L 590 451 L 590 450 L 583 443 L 584 442 L 584 436 L 583 435 L 583 433 L 581 431 L 581 430 L 579 428 L 578 428 L 577 427 L 576 427 L 575 426 Z" fill="black"/>
<path d="M 533 372 L 532 373 L 530 373 L 529 374 L 528 374 L 526 376 L 525 376 L 520 381 L 520 382 L 518 384 L 518 385 L 517 386 L 517 388 L 516 389 L 516 458 L 524 458 L 524 395 L 525 394 L 525 391 L 526 390 L 526 389 L 527 388 L 527 387 L 532 382 L 533 382 L 534 381 L 537 381 L 538 380 L 542 380 L 543 381 L 547 381 L 548 382 L 550 382 L 551 383 L 552 383 L 553 384 L 554 384 L 555 385 L 556 385 L 558 387 L 559 387 L 564 392 L 565 392 L 566 393 L 566 394 L 572 400 L 572 401 L 576 405 L 577 405 L 578 406 L 582 406 L 583 407 L 585 407 L 586 408 L 587 408 L 588 409 L 589 409 L 590 410 L 591 410 L 593 412 L 594 412 L 603 421 L 603 422 L 605 424 L 605 425 L 607 427 L 607 428 L 608 429 L 608 431 L 609 432 L 609 433 L 610 434 L 610 437 L 611 438 L 611 449 L 610 450 L 610 453 L 615 458 L 616 458 L 626 468 L 626 469 L 628 471 L 628 472 L 629 473 L 629 474 L 630 475 L 630 476 L 631 477 L 631 478 L 632 479 L 632 480 L 633 481 L 633 483 L 634 484 L 634 487 L 635 488 L 635 491 L 636 492 L 636 510 L 635 511 L 635 514 L 634 515 L 634 517 L 633 518 L 633 519 L 632 520 L 632 522 L 631 523 L 631 524 L 630 525 L 630 526 L 628 528 L 628 529 L 626 531 L 626 532 L 624 534 L 624 535 L 623 536 L 623 538 L 624 539 L 624 540 L 626 542 L 626 543 L 628 545 L 628 547 L 629 548 L 629 550 L 630 551 L 630 561 L 629 562 L 629 565 L 628 566 L 628 567 L 627 568 L 627 570 L 625 572 L 625 573 L 623 575 L 623 576 L 616 583 L 615 583 L 613 585 L 612 585 L 611 586 L 610 586 L 609 587 L 607 587 L 606 588 L 604 588 L 603 589 L 602 589 L 602 590 L 601 591 L 601 595 L 600 596 L 600 599 L 599 600 L 599 602 L 598 603 L 598 604 L 597 605 L 597 606 L 596 607 L 596 608 L 594 610 L 594 611 L 586 619 L 585 619 L 583 621 L 582 621 L 581 622 L 579 622 L 578 623 L 573 623 L 572 624 L 571 624 L 567 628 L 567 629 L 562 634 L 561 634 L 558 637 L 557 637 L 555 639 L 554 639 L 553 640 L 552 640 L 551 641 L 550 641 L 549 642 L 548 642 L 547 643 L 543 643 L 542 644 L 538 644 L 537 643 L 535 643 L 534 642 L 533 642 L 527 636 L 527 635 L 526 634 L 526 633 L 525 632 L 525 629 L 524 628 L 524 627 L 522 625 L 519 625 L 518 626 L 517 626 L 516 627 L 516 633 L 517 634 L 517 636 L 518 637 L 518 638 L 519 639 L 519 640 L 520 641 L 520 642 L 527 649 L 528 649 L 529 650 L 530 650 L 531 651 L 533 651 L 534 652 L 539 652 L 540 653 L 541 653 L 542 652 L 548 652 L 549 651 L 551 651 L 552 650 L 554 650 L 555 649 L 556 649 L 557 648 L 558 648 L 560 646 L 561 646 L 563 644 L 564 644 L 569 639 L 570 639 L 572 637 L 572 636 L 576 632 L 579 632 L 580 631 L 582 631 L 583 630 L 585 630 L 586 629 L 587 629 L 588 628 L 589 628 L 591 626 L 592 626 L 600 618 L 600 617 L 603 614 L 603 613 L 604 612 L 604 611 L 605 610 L 605 609 L 606 608 L 606 607 L 607 606 L 607 604 L 608 603 L 608 601 L 609 600 L 609 597 L 611 595 L 612 595 L 613 594 L 615 594 L 617 592 L 618 592 L 619 591 L 620 591 L 623 588 L 624 588 L 630 582 L 630 581 L 633 578 L 633 577 L 634 576 L 634 575 L 635 574 L 635 573 L 636 572 L 636 571 L 637 570 L 637 568 L 638 567 L 638 563 L 639 562 L 639 550 L 638 549 L 638 546 L 637 545 L 637 544 L 636 543 L 636 542 L 635 541 L 635 540 L 634 539 L 634 536 L 635 535 L 635 534 L 636 533 L 636 532 L 637 531 L 637 530 L 638 529 L 638 528 L 639 527 L 639 526 L 640 525 L 640 524 L 641 523 L 641 522 L 642 521 L 642 519 L 643 518 L 643 515 L 644 514 L 644 510 L 645 509 L 645 493 L 644 492 L 644 487 L 643 486 L 643 484 L 642 483 L 642 480 L 641 479 L 641 478 L 640 477 L 640 475 L 639 474 L 639 473 L 638 472 L 638 471 L 637 470 L 637 469 L 636 468 L 636 467 L 634 465 L 634 464 L 632 462 L 632 461 L 623 452 L 622 452 L 620 450 L 620 438 L 619 437 L 619 434 L 618 433 L 618 430 L 617 429 L 617 428 L 616 427 L 616 425 L 615 424 L 615 423 L 613 421 L 613 420 L 612 419 L 612 418 L 609 415 L 609 414 L 601 406 L 600 406 L 598 404 L 597 404 L 595 402 L 594 402 L 593 401 L 592 401 L 591 400 L 589 400 L 588 399 L 587 399 L 586 398 L 584 398 L 583 397 L 581 397 L 578 394 L 578 393 L 566 381 L 565 381 L 563 379 L 562 379 L 561 378 L 560 378 L 558 376 L 557 376 L 556 375 L 554 375 L 553 374 L 552 374 L 551 373 L 548 373 L 547 372 Z" fill="black"/>
<path d="M 481 371 L 480 372 L 475 372 L 474 373 L 471 373 L 470 374 L 469 374 L 468 375 L 467 375 L 466 376 L 464 376 L 462 378 L 461 378 L 460 379 L 459 379 L 456 382 L 455 382 L 443 394 L 443 395 L 440 398 L 437 398 L 436 399 L 434 399 L 433 400 L 431 400 L 430 401 L 429 401 L 428 402 L 427 402 L 425 404 L 424 404 L 423 405 L 422 405 L 411 416 L 411 417 L 409 419 L 409 420 L 407 422 L 407 423 L 406 424 L 406 425 L 405 426 L 405 428 L 404 429 L 404 431 L 403 432 L 403 434 L 402 435 L 402 440 L 401 441 L 401 450 L 402 451 L 402 452 L 399 455 L 398 455 L 390 463 L 390 464 L 388 466 L 388 467 L 386 469 L 386 470 L 385 471 L 385 472 L 384 473 L 384 474 L 383 475 L 383 477 L 382 478 L 382 479 L 381 480 L 381 483 L 380 484 L 380 487 L 379 488 L 379 497 L 378 498 L 379 499 L 379 509 L 380 510 L 380 513 L 381 514 L 381 517 L 382 518 L 382 520 L 383 521 L 383 522 L 384 523 L 384 524 L 385 525 L 385 526 L 386 527 L 386 528 L 387 529 L 387 530 L 388 531 L 388 534 L 387 535 L 387 536 L 386 537 L 386 540 L 385 541 L 385 544 L 384 545 L 384 558 L 385 559 L 385 562 L 386 563 L 386 565 L 387 566 L 387 568 L 388 569 L 388 570 L 389 571 L 389 572 L 391 574 L 391 575 L 393 577 L 393 578 L 403 588 L 404 588 L 406 590 L 407 590 L 408 591 L 409 591 L 410 592 L 411 592 L 412 593 L 413 593 L 414 594 L 414 599 L 415 600 L 415 603 L 416 604 L 416 606 L 417 607 L 417 609 L 418 610 L 418 611 L 420 613 L 420 614 L 422 616 L 422 617 L 428 623 L 429 623 L 431 625 L 432 625 L 433 626 L 434 626 L 435 627 L 436 627 L 437 628 L 439 628 L 440 629 L 442 629 L 444 631 L 444 632 L 454 642 L 455 642 L 458 645 L 459 645 L 461 647 L 462 647 L 463 648 L 464 648 L 465 649 L 466 649 L 467 650 L 469 650 L 470 651 L 473 651 L 474 652 L 482 652 L 483 651 L 486 651 L 487 650 L 488 650 L 489 649 L 490 649 L 491 648 L 492 648 L 501 639 L 501 638 L 502 637 L 502 636 L 503 635 L 503 634 L 505 632 L 505 630 L 506 629 L 506 628 L 507 627 L 507 625 L 508 624 L 508 623 L 509 622 L 509 620 L 510 619 L 510 614 L 509 613 L 510 612 L 510 609 L 509 608 L 510 607 L 510 602 L 509 601 L 509 599 L 510 598 L 509 597 L 509 596 L 510 595 L 510 584 L 509 583 L 509 581 L 510 580 L 509 579 L 509 575 L 510 574 L 509 573 L 509 571 L 510 570 L 509 569 L 510 568 L 510 567 L 509 566 L 508 567 L 503 567 L 502 566 L 501 566 L 501 617 L 500 618 L 500 620 L 499 621 L 499 622 L 498 623 L 498 625 L 497 626 L 497 628 L 496 629 L 496 630 L 494 632 L 494 633 L 491 636 L 491 637 L 490 638 L 489 638 L 486 641 L 485 641 L 484 642 L 482 642 L 481 643 L 475 643 L 474 642 L 471 642 L 470 641 L 469 641 L 468 640 L 467 640 L 465 638 L 464 638 L 462 636 L 461 636 L 450 625 L 450 624 L 448 622 L 447 622 L 446 621 L 443 621 L 442 620 L 441 620 L 440 619 L 439 619 L 438 618 L 437 618 L 436 617 L 435 617 L 427 609 L 427 608 L 426 607 L 426 606 L 425 605 L 425 604 L 424 603 L 424 600 L 423 599 L 423 590 L 422 589 L 422 588 L 421 587 L 420 587 L 419 586 L 417 586 L 416 585 L 415 585 L 414 584 L 413 584 L 411 582 L 410 582 L 405 577 L 404 577 L 403 576 L 403 575 L 399 571 L 399 570 L 397 568 L 397 567 L 396 566 L 396 565 L 395 564 L 395 562 L 394 561 L 394 559 L 393 558 L 393 545 L 394 544 L 394 541 L 395 540 L 395 539 L 396 538 L 396 537 L 397 536 L 397 535 L 398 534 L 398 530 L 397 529 L 397 528 L 395 526 L 395 525 L 394 524 L 394 523 L 393 522 L 393 521 L 392 520 L 392 519 L 391 518 L 391 517 L 390 516 L 390 514 L 389 513 L 389 510 L 388 509 L 388 505 L 387 504 L 387 495 L 388 494 L 388 489 L 389 488 L 389 485 L 390 484 L 390 482 L 391 481 L 391 479 L 392 478 L 392 477 L 393 476 L 393 475 L 394 474 L 394 473 L 397 470 L 397 469 L 404 462 L 405 462 L 407 460 L 408 460 L 409 459 L 410 459 L 411 458 L 411 457 L 412 456 L 412 455 L 411 454 L 411 450 L 410 449 L 410 440 L 411 439 L 411 436 L 412 435 L 412 433 L 413 432 L 413 430 L 414 429 L 414 428 L 415 427 L 415 426 L 417 424 L 417 423 L 420 420 L 420 419 L 424 415 L 425 415 L 428 412 L 429 412 L 431 410 L 432 410 L 433 409 L 434 409 L 435 408 L 437 408 L 438 407 L 440 407 L 441 406 L 444 406 L 445 405 L 446 405 L 449 402 L 449 401 L 454 396 L 454 395 L 457 392 L 458 392 L 463 387 L 464 387 L 465 386 L 466 386 L 468 384 L 469 384 L 470 383 L 471 383 L 472 382 L 474 382 L 475 381 L 478 381 L 479 380 L 484 380 L 485 381 L 488 381 L 490 383 L 491 383 L 495 387 L 495 388 L 496 389 L 496 390 L 497 391 L 497 392 L 498 393 L 498 397 L 499 398 L 499 409 L 498 410 L 498 415 L 497 416 L 497 418 L 496 419 L 496 421 L 488 429 L 487 429 L 481 435 L 481 436 L 478 439 L 478 440 L 476 442 L 462 442 L 460 440 L 460 439 L 458 437 L 458 436 L 457 435 L 456 435 L 454 433 L 452 433 L 451 432 L 442 432 L 441 433 L 440 433 L 439 434 L 438 434 L 435 437 L 435 438 L 434 439 L 434 440 L 433 441 L 433 444 L 432 445 L 432 447 L 433 448 L 433 451 L 434 452 L 434 453 L 435 454 L 435 455 L 439 459 L 441 459 L 442 460 L 452 460 L 453 459 L 454 459 L 455 458 L 456 458 L 459 455 L 459 454 L 460 453 L 460 452 L 462 450 L 480 450 L 481 449 L 482 449 L 484 447 L 484 446 L 488 442 L 488 441 L 495 434 L 496 434 L 503 427 L 503 426 L 504 425 L 504 423 L 505 422 L 505 420 L 506 419 L 506 416 L 507 415 L 507 410 L 508 409 L 508 399 L 507 398 L 507 393 L 506 392 L 506 389 L 505 388 L 505 387 L 504 386 L 504 385 L 502 383 L 502 382 L 495 375 L 494 375 L 493 374 L 492 374 L 491 373 L 490 373 L 489 372 L 485 372 L 484 371 Z" fill="black"/>
</svg>