<?xml version="1.0" encoding="UTF-8"?>
<svg xmlns="http://www.w3.org/2000/svg" viewBox="0 0 1024 1024">
<path d="M 590 536 L 589 537 L 586 537 L 585 538 L 584 538 L 583 539 L 582 539 L 577 544 L 577 545 L 576 546 L 576 547 L 575 548 L 575 550 L 574 551 L 574 556 L 575 557 L 575 560 L 576 561 L 576 562 L 578 564 L 574 568 L 573 568 L 564 577 L 563 577 L 557 583 L 556 583 L 555 582 L 553 582 L 552 581 L 549 581 L 548 580 L 545 580 L 544 581 L 541 581 L 540 582 L 539 582 L 537 584 L 536 584 L 535 585 L 535 586 L 533 588 L 533 589 L 532 590 L 532 592 L 531 593 L 531 599 L 532 600 L 532 602 L 533 603 L 533 604 L 534 605 L 534 606 L 536 608 L 537 608 L 539 610 L 540 610 L 541 611 L 543 611 L 544 612 L 550 612 L 551 611 L 553 611 L 554 610 L 555 610 L 556 609 L 557 609 L 560 606 L 560 605 L 561 604 L 561 603 L 562 602 L 562 601 L 563 600 L 563 592 L 566 589 L 567 589 L 576 580 L 577 580 L 586 571 L 589 571 L 590 572 L 594 572 L 595 571 L 598 571 L 599 570 L 600 570 L 601 569 L 602 569 L 607 564 L 607 563 L 609 561 L 609 558 L 610 557 L 610 551 L 609 550 L 609 548 L 608 547 L 608 546 L 607 545 L 607 544 L 602 539 L 601 539 L 600 538 L 599 538 L 598 537 L 595 537 L 594 536 Z" fill="blue"/>
<path d="M 410 471 L 409 472 L 407 472 L 406 473 L 405 473 L 403 475 L 402 475 L 399 478 L 399 479 L 398 480 L 398 481 L 397 482 L 397 483 L 396 484 L 396 495 L 397 496 L 397 498 L 398 499 L 398 500 L 404 506 L 405 506 L 406 507 L 407 507 L 409 509 L 409 543 L 410 544 L 410 546 L 412 548 L 412 549 L 414 551 L 414 552 L 418 556 L 418 557 L 423 562 L 423 563 L 429 569 L 429 570 L 434 575 L 434 585 L 435 586 L 435 587 L 436 588 L 436 589 L 437 590 L 437 591 L 439 593 L 440 593 L 442 595 L 443 595 L 444 596 L 446 596 L 447 597 L 453 597 L 454 596 L 455 596 L 466 607 L 466 608 L 467 609 L 467 619 L 468 620 L 468 621 L 470 623 L 475 623 L 478 620 L 478 608 L 477 607 L 477 605 L 476 604 L 476 603 L 475 602 L 475 601 L 464 590 L 464 586 L 465 585 L 465 579 L 464 578 L 464 576 L 463 575 L 463 574 L 462 573 L 462 572 L 459 569 L 458 569 L 456 567 L 454 567 L 453 566 L 445 566 L 444 567 L 441 567 L 438 564 L 438 563 L 432 557 L 432 556 L 426 550 L 426 549 L 422 545 L 422 544 L 420 542 L 420 522 L 419 521 L 419 509 L 420 508 L 421 508 L 422 507 L 423 507 L 425 505 L 426 505 L 428 503 L 428 502 L 430 500 L 430 499 L 431 498 L 431 497 L 432 496 L 437 496 L 438 495 L 455 495 L 456 494 L 457 494 L 459 492 L 459 488 L 458 487 L 458 486 L 457 485 L 456 485 L 455 484 L 449 484 L 448 485 L 433 485 L 432 484 L 432 483 L 431 482 L 431 481 L 430 480 L 430 479 L 425 474 L 424 474 L 423 473 L 422 473 L 421 472 L 420 472 L 419 471 Z" fill="blue"/>
<path d="M 486 453 L 485 454 L 474 454 L 474 548 L 475 549 L 475 553 L 519 553 L 520 552 L 552 552 L 552 540 L 551 539 L 551 535 L 500 535 L 499 536 L 498 536 L 497 535 L 497 514 L 498 513 L 544 513 L 544 496 L 498 496 L 497 495 L 497 472 L 498 471 L 551 471 L 551 453 Z" fill="blue"/>
<path d="M 574 403 L 573 404 L 571 404 L 570 405 L 569 405 L 565 409 L 565 410 L 564 411 L 564 412 L 563 413 L 563 421 L 564 422 L 564 424 L 566 426 L 566 427 L 568 429 L 569 429 L 571 431 L 574 431 L 575 432 L 579 432 L 580 431 L 582 431 L 583 430 L 584 430 L 585 431 L 585 432 L 593 440 L 593 441 L 596 444 L 596 445 L 599 448 L 599 449 L 600 450 L 600 451 L 601 452 L 601 453 L 602 454 L 602 455 L 603 456 L 603 458 L 604 459 L 604 461 L 605 462 L 605 469 L 606 470 L 606 471 L 605 472 L 603 472 L 602 473 L 601 473 L 595 479 L 595 481 L 594 482 L 594 483 L 593 484 L 582 484 L 581 485 L 569 485 L 566 488 L 566 492 L 569 495 L 571 495 L 572 496 L 586 496 L 587 495 L 593 495 L 596 498 L 596 499 L 600 503 L 601 503 L 602 504 L 603 504 L 604 505 L 605 505 L 606 506 L 615 506 L 616 505 L 618 505 L 619 504 L 620 504 L 622 502 L 623 502 L 625 500 L 625 499 L 626 498 L 626 497 L 627 496 L 627 495 L 628 494 L 628 490 L 629 489 L 629 488 L 628 487 L 628 483 L 627 482 L 627 481 L 626 480 L 626 479 L 620 473 L 618 473 L 617 472 L 617 470 L 616 469 L 616 462 L 615 461 L 615 457 L 614 456 L 614 454 L 613 453 L 613 452 L 612 451 L 612 449 L 611 448 L 611 447 L 610 446 L 610 445 L 608 443 L 608 442 L 606 440 L 606 439 L 603 436 L 603 435 L 597 429 L 597 428 L 591 422 L 591 421 L 592 420 L 592 414 L 591 413 L 591 411 L 589 409 L 589 408 L 587 406 L 586 406 L 584 404 L 582 404 L 581 403 Z" fill="blue"/>
<path d="M 537 341 L 536 342 L 532 342 L 531 343 L 529 343 L 528 344 L 527 344 L 525 346 L 524 346 L 521 349 L 521 350 L 519 352 L 519 354 L 518 355 L 518 357 L 517 358 L 517 440 L 518 441 L 518 443 L 519 444 L 520 444 L 521 445 L 525 445 L 528 442 L 528 359 L 529 358 L 529 357 L 532 354 L 533 354 L 534 353 L 535 353 L 536 352 L 546 352 L 547 353 L 549 353 L 550 354 L 552 354 L 553 355 L 554 355 L 555 356 L 557 356 L 559 358 L 560 358 L 561 359 L 562 359 L 566 363 L 567 363 L 573 369 L 573 370 L 576 373 L 576 374 L 578 376 L 578 377 L 580 379 L 580 380 L 581 380 L 583 382 L 586 382 L 587 383 L 590 383 L 591 384 L 593 384 L 594 385 L 595 385 L 596 386 L 597 386 L 598 387 L 599 387 L 600 388 L 601 388 L 602 389 L 603 389 L 606 392 L 607 392 L 611 396 L 611 397 L 614 400 L 614 401 L 616 403 L 616 404 L 617 405 L 617 406 L 618 407 L 618 408 L 619 409 L 619 411 L 620 412 L 620 414 L 621 415 L 621 419 L 622 420 L 622 434 L 624 436 L 625 436 L 639 450 L 639 451 L 642 454 L 642 455 L 643 456 L 643 457 L 644 458 L 644 459 L 645 460 L 645 461 L 646 462 L 646 463 L 647 464 L 647 465 L 648 466 L 648 468 L 649 469 L 649 472 L 650 473 L 650 477 L 651 478 L 651 485 L 652 486 L 652 494 L 651 495 L 651 502 L 650 503 L 650 506 L 649 507 L 649 509 L 648 510 L 648 512 L 647 513 L 647 514 L 646 515 L 646 516 L 645 517 L 645 518 L 644 519 L 644 520 L 642 522 L 642 523 L 639 526 L 639 529 L 642 532 L 642 533 L 643 534 L 643 535 L 644 536 L 644 537 L 645 538 L 645 539 L 646 540 L 646 541 L 647 542 L 647 547 L 648 548 L 648 553 L 647 554 L 647 559 L 646 560 L 646 563 L 645 564 L 645 565 L 644 566 L 644 568 L 642 570 L 642 571 L 641 572 L 641 573 L 638 576 L 638 577 L 631 584 L 630 584 L 628 586 L 627 586 L 626 587 L 625 587 L 624 588 L 623 588 L 622 589 L 620 589 L 619 590 L 615 590 L 614 591 L 613 591 L 613 601 L 612 602 L 612 606 L 611 607 L 611 608 L 610 609 L 610 610 L 609 611 L 609 612 L 608 613 L 608 614 L 607 615 L 607 616 L 603 620 L 603 621 L 600 624 L 599 624 L 595 628 L 594 628 L 593 629 L 592 629 L 591 630 L 590 630 L 589 631 L 587 631 L 586 632 L 579 632 L 577 634 L 577 635 L 574 638 L 574 639 L 569 644 L 568 644 L 565 647 L 564 647 L 562 649 L 561 649 L 560 650 L 559 650 L 558 651 L 557 651 L 556 652 L 554 652 L 553 653 L 551 653 L 550 654 L 541 654 L 540 653 L 539 653 L 538 652 L 537 652 L 531 646 L 531 645 L 530 644 L 530 638 L 529 637 L 528 637 L 527 636 L 522 636 L 519 639 L 519 646 L 520 647 L 520 649 L 522 651 L 522 652 L 524 654 L 524 655 L 527 658 L 528 658 L 531 661 L 532 661 L 533 662 L 534 662 L 535 663 L 536 663 L 537 664 L 540 664 L 541 665 L 550 665 L 551 664 L 555 664 L 556 663 L 558 663 L 559 662 L 561 662 L 562 661 L 563 661 L 564 660 L 565 660 L 566 659 L 567 659 L 569 657 L 570 657 L 572 655 L 573 655 L 583 645 L 583 644 L 584 643 L 587 643 L 588 642 L 591 642 L 592 641 L 593 641 L 594 640 L 596 640 L 597 639 L 598 639 L 600 637 L 601 637 L 603 635 L 604 635 L 614 625 L 614 624 L 616 622 L 616 621 L 618 619 L 618 618 L 619 617 L 619 616 L 620 615 L 620 614 L 621 613 L 621 611 L 622 610 L 622 608 L 623 607 L 623 603 L 624 602 L 624 600 L 625 599 L 627 599 L 628 598 L 629 598 L 630 597 L 631 597 L 632 596 L 633 596 L 635 594 L 636 594 L 639 591 L 640 591 L 646 585 L 646 584 L 649 581 L 649 580 L 651 578 L 651 577 L 652 576 L 652 575 L 653 574 L 653 573 L 654 572 L 654 571 L 655 570 L 655 568 L 656 567 L 656 565 L 657 564 L 657 561 L 658 560 L 658 552 L 659 551 L 659 550 L 658 549 L 658 543 L 657 542 L 657 539 L 656 538 L 656 536 L 655 535 L 655 534 L 654 533 L 654 532 L 653 531 L 653 530 L 652 529 L 652 527 L 653 526 L 653 525 L 655 523 L 655 522 L 656 521 L 656 520 L 657 519 L 657 518 L 658 517 L 658 515 L 659 514 L 659 512 L 660 511 L 660 508 L 661 507 L 661 504 L 662 503 L 662 492 L 663 491 L 663 488 L 662 487 L 662 477 L 661 476 L 661 472 L 660 471 L 660 468 L 659 467 L 659 465 L 658 464 L 658 463 L 657 462 L 657 460 L 656 459 L 656 458 L 655 457 L 655 456 L 654 455 L 654 454 L 653 453 L 653 452 L 651 450 L 651 449 L 650 448 L 650 447 L 647 444 L 647 443 L 640 436 L 640 435 L 639 435 L 633 429 L 633 418 L 632 417 L 632 413 L 631 412 L 631 410 L 630 409 L 630 407 L 629 406 L 629 404 L 628 403 L 628 402 L 627 401 L 627 400 L 626 399 L 626 398 L 624 396 L 624 395 L 622 393 L 622 392 L 613 383 L 612 383 L 610 381 L 609 381 L 607 379 L 606 379 L 605 378 L 604 378 L 603 377 L 602 377 L 601 376 L 600 376 L 599 375 L 598 375 L 597 374 L 595 374 L 594 373 L 591 373 L 590 372 L 588 372 L 587 371 L 587 370 L 585 368 L 585 367 L 582 364 L 582 363 L 573 354 L 572 354 L 569 351 L 568 351 L 566 349 L 565 349 L 564 348 L 563 348 L 562 347 L 561 347 L 560 346 L 559 346 L 558 345 L 557 345 L 556 344 L 554 344 L 553 343 L 550 343 L 549 342 L 546 342 L 545 341 Z" fill="blue"/>
<path d="M 476 341 L 475 342 L 471 342 L 470 343 L 468 343 L 467 344 L 465 344 L 464 345 L 463 345 L 462 346 L 461 346 L 460 347 L 459 347 L 457 349 L 456 349 L 455 350 L 454 350 L 451 353 L 450 353 L 439 364 L 439 365 L 437 367 L 437 368 L 435 370 L 435 371 L 431 375 L 428 375 L 427 376 L 425 376 L 424 377 L 422 377 L 421 378 L 420 378 L 419 379 L 418 379 L 417 380 L 416 380 L 415 381 L 414 381 L 413 382 L 412 382 L 411 383 L 410 383 L 406 387 L 405 387 L 399 393 L 399 394 L 396 397 L 396 398 L 394 400 L 394 401 L 393 402 L 393 403 L 392 404 L 392 405 L 391 406 L 391 407 L 390 408 L 390 410 L 389 411 L 389 414 L 388 415 L 388 418 L 387 419 L 387 434 L 375 446 L 375 447 L 372 450 L 372 451 L 371 452 L 371 453 L 369 455 L 369 456 L 368 457 L 368 458 L 367 459 L 367 460 L 366 461 L 366 462 L 365 463 L 365 465 L 364 466 L 364 468 L 363 469 L 363 471 L 362 472 L 362 476 L 361 477 L 361 486 L 360 487 L 360 493 L 361 494 L 361 502 L 362 503 L 362 507 L 363 508 L 363 510 L 364 511 L 364 513 L 365 514 L 365 515 L 366 516 L 366 517 L 367 518 L 367 519 L 368 520 L 368 521 L 369 522 L 369 523 L 371 525 L 371 526 L 372 527 L 372 529 L 371 530 L 371 531 L 370 532 L 370 533 L 369 534 L 369 537 L 368 538 L 368 542 L 367 543 L 367 553 L 368 554 L 368 559 L 369 560 L 369 562 L 370 563 L 370 565 L 371 566 L 371 567 L 372 568 L 372 569 L 373 570 L 373 571 L 374 572 L 374 573 L 375 574 L 375 575 L 377 577 L 377 578 L 379 580 L 379 581 L 387 589 L 388 589 L 390 591 L 391 591 L 392 592 L 393 592 L 395 594 L 396 594 L 397 595 L 399 595 L 400 596 L 400 600 L 401 601 L 401 605 L 402 606 L 402 607 L 403 608 L 403 610 L 404 611 L 404 612 L 405 613 L 405 614 L 406 615 L 406 616 L 408 618 L 408 619 L 410 621 L 410 622 L 421 633 L 422 633 L 424 635 L 425 635 L 427 637 L 428 637 L 429 638 L 430 638 L 431 639 L 432 639 L 433 640 L 434 640 L 435 641 L 437 641 L 438 642 L 440 642 L 441 643 L 442 643 L 444 645 L 444 646 L 448 650 L 448 651 L 450 653 L 451 653 L 454 656 L 455 656 L 457 658 L 458 658 L 459 659 L 460 659 L 461 660 L 462 660 L 463 661 L 464 661 L 465 662 L 467 662 L 468 663 L 471 663 L 472 664 L 487 664 L 488 663 L 490 663 L 491 662 L 492 662 L 493 661 L 494 661 L 495 660 L 496 660 L 498 658 L 499 658 L 504 653 L 504 652 L 506 650 L 506 649 L 507 648 L 507 647 L 508 646 L 508 645 L 509 644 L 509 642 L 510 641 L 510 638 L 511 637 L 511 565 L 510 564 L 510 563 L 509 563 L 508 562 L 503 562 L 501 564 L 501 565 L 500 566 L 500 568 L 501 569 L 501 631 L 500 632 L 500 636 L 499 637 L 499 640 L 498 641 L 498 642 L 496 644 L 496 645 L 490 651 L 489 651 L 488 652 L 487 652 L 486 653 L 472 653 L 471 652 L 469 652 L 468 651 L 467 651 L 466 650 L 465 650 L 464 649 L 463 649 L 461 647 L 460 647 L 453 640 L 453 639 L 451 637 L 451 636 L 448 633 L 446 633 L 445 632 L 443 632 L 442 631 L 440 631 L 439 630 L 438 630 L 437 629 L 436 629 L 435 628 L 434 628 L 433 627 L 432 627 L 430 625 L 429 625 L 426 622 L 425 622 L 420 617 L 420 616 L 417 613 L 417 612 L 415 610 L 415 609 L 414 608 L 414 607 L 413 606 L 413 604 L 412 603 L 412 599 L 411 598 L 411 588 L 410 587 L 407 587 L 406 586 L 404 586 L 403 585 L 401 585 L 400 584 L 399 584 L 397 582 L 396 582 L 393 579 L 392 579 L 387 574 L 387 573 L 384 570 L 384 569 L 383 568 L 383 567 L 382 566 L 382 565 L 381 564 L 381 563 L 380 562 L 380 560 L 379 559 L 379 556 L 378 555 L 378 542 L 379 541 L 379 539 L 380 538 L 380 537 L 381 536 L 381 534 L 382 533 L 382 532 L 383 531 L 383 530 L 384 529 L 384 528 L 385 527 L 385 526 L 383 524 L 383 523 L 381 521 L 381 520 L 379 518 L 379 517 L 378 516 L 378 515 L 377 514 L 377 513 L 376 512 L 376 511 L 375 510 L 375 509 L 374 508 L 374 506 L 373 505 L 373 501 L 372 500 L 372 478 L 373 477 L 373 473 L 374 472 L 374 470 L 375 469 L 375 467 L 376 466 L 376 465 L 377 464 L 377 462 L 379 460 L 379 459 L 381 457 L 381 456 L 383 454 L 383 453 L 392 444 L 393 444 L 398 439 L 398 421 L 399 420 L 399 416 L 400 415 L 400 413 L 401 412 L 401 411 L 402 410 L 402 409 L 403 408 L 403 407 L 404 406 L 404 405 L 406 403 L 406 402 L 414 394 L 415 394 L 417 392 L 418 392 L 420 390 L 421 390 L 422 389 L 423 389 L 424 388 L 425 388 L 426 387 L 428 387 L 429 386 L 432 386 L 433 385 L 436 385 L 437 384 L 439 384 L 439 383 L 441 381 L 441 380 L 443 378 L 443 377 L 445 375 L 445 374 L 449 370 L 449 369 L 456 362 L 457 362 L 460 359 L 461 359 L 463 357 L 464 357 L 465 356 L 466 356 L 467 355 L 468 355 L 469 354 L 471 354 L 472 353 L 475 353 L 476 352 L 485 352 L 486 353 L 488 353 L 489 354 L 490 354 L 495 359 L 495 360 L 496 361 L 496 369 L 497 370 L 497 387 L 496 388 L 496 391 L 495 392 L 495 394 L 494 395 L 494 396 L 493 397 L 493 398 L 492 399 L 492 400 L 491 401 L 491 402 L 489 404 L 489 405 L 479 415 L 478 415 L 477 416 L 476 416 L 475 417 L 474 417 L 473 418 L 472 418 L 471 419 L 468 419 L 467 420 L 459 420 L 458 421 L 456 421 L 455 420 L 455 419 L 454 418 L 454 417 L 449 412 L 448 412 L 446 410 L 443 410 L 442 409 L 436 409 L 435 410 L 432 410 L 430 412 L 429 412 L 425 416 L 425 417 L 423 419 L 423 421 L 422 422 L 422 432 L 423 433 L 423 435 L 425 437 L 425 438 L 429 442 L 430 442 L 431 443 L 432 443 L 433 444 L 436 444 L 437 445 L 442 445 L 443 444 L 445 444 L 446 443 L 447 443 L 448 442 L 449 442 L 454 437 L 454 436 L 455 435 L 455 433 L 457 431 L 467 431 L 468 430 L 472 430 L 473 429 L 475 429 L 476 428 L 478 428 L 479 427 L 480 427 L 481 426 L 482 426 L 483 425 L 484 425 L 486 423 L 487 423 L 495 415 L 495 414 L 499 410 L 499 409 L 500 408 L 500 407 L 502 405 L 502 404 L 503 403 L 503 402 L 504 401 L 504 400 L 505 399 L 505 397 L 506 396 L 506 394 L 507 393 L 507 389 L 508 388 L 508 369 L 507 368 L 507 360 L 506 359 L 506 357 L 505 356 L 505 355 L 504 354 L 504 353 L 496 345 L 495 345 L 494 344 L 493 344 L 492 343 L 490 343 L 489 342 L 486 342 L 485 341 Z" fill="blue"/>
</svg>